<svg aria-hidden="true" style="width:0;height:0;position:absolute;overflow:hidden" xmlns="http://www.w3.org/2000/svg"><defs><symbol id="icon-fi-ss-caret-down" viewBox="0 0 21 24"><path fill="#fff" style="fill:var(--color1,#fff)" d="M4.423 9h12.385l-5.567 6.293c-.166.187-.391.293-.625.293s-.46-.105-.625-.293L4.424 9z"/></symbol><symbol id="icon-lock" viewBox="0 0 24 24"><path stroke-linejoin="round" stroke-linecap="round" stroke-width="1.714" d="M17 11V8A5 5 0 0 0 7 8v3m.8 10h8.4c1.68 0 2.52 0 3.162-.327a3.009 3.009 0 0 0 1.311-1.311C21 18.72 21 17.88 21 16.2v-.4c0-1.68 0-2.52-.327-3.162a3.004 3.004 0 0 0-1.311-1.311C18.72 11 17.88 11 16.2 11H7.8c-1.68 0-2.52 0-3.162.327a3.009 3.009 0 0 0-1.311 1.311C3 13.28 3 14.12 3 15.8v.4c0 1.68 0 2.52.327 3.162a3.009 3.009 0 0 0 1.311 1.311C5.28 21 6.12 21 7.8 21z"/></symbol><symbol id="icon-mail" viewBox="0 0 24 24"><path stroke-linejoin="round" stroke-linecap="round" stroke-width="1.714" d="m21.5 18-6.643-6m-5.714 0L2.5 18M2 7l8.165 5.715c.661.463.992.694 1.351.784.318.079.65.079.967 0 .36-.09.69-.321 1.351-.784L21.999 7M6.8 20h10.4c1.68 0 2.52 0 3.162-.327a3.004 3.004 0 0 0 1.311-1.311C22 17.72 22 16.88 22 15.2V8.8c0-1.68 0-2.52-.327-3.162a3.009 3.009 0 0 0-1.311-1.311C19.72 4 18.88 4 17.2 4H6.8c-1.68 0-2.52 0-3.162.327a3.009 3.009 0 0 0-1.311 1.311C2 6.28 2 7.12 2 8.8v6.4c0 1.68 0 2.52.327 3.162a3.004 3.004 0 0 0 1.311 1.311C4.28 20 5.12 20 6.8 20z"/></symbol><symbol id="icon-x-close" viewBox="0 0 24 24"><path stroke-linejoin="round" stroke-linecap="round" stroke-width="2.571" d="M18 6 6 18M6 6l12 12"/></symbol><symbol id="icon-arrow-right" viewBox="0 0 24 24"><path fill="none" stroke="#eac645" style="stroke:var(--color2,#eac645)" stroke-linejoin="round" stroke-linecap="round" stroke-width="2.4" d="M4 12h16m0 0-6-6m6 6-6 6"/></symbol><symbol id="icon-logo_dark" viewBox="0 0 94 24"><path fill="#f6f6f6" style="fill:var(--color3,#f6f6f6)" d="M0 1.714 10.506 12.11l10.065 10.175V1.714H0z"/><path fill="#f6f6f6" style="fill:var(--color3,#f6f6f6)" d="m2.865 4.433 7.678 7.604 7.237 7.384H2.866V4.433z"/><path fill="#4f2ee8" style="fill:var(--color4,#4f2ee8)" d="m17.828 19.469-7.678-7.604-7.237-7.384h14.914v14.988z"/><path fill="#4f2ee8" style="fill:var(--color4,#4f2ee8)" d="m5.951 7.518 8.743 8.743H5.951V7.518z"/><path fill="#f6f6f6" style="fill:var(--color3,#f6f6f6)" d="m5.951 7.518 8.743 8.743V7.518H5.951z"/><path fill="#f3f3f3" style="fill:var(--color5,#f3f3f3)" d="M35.745 9.2c0-1.774-1.311-2.777-3.579-2.777h-4.737v11.031h4.999c2.283 0 3.749-1.095 3.749-3.225 0-1.651-.987-2.499-2.145-2.7v-.031c.91-.309 1.713-.941 1.713-2.299zm-6.48 1.789V7.98h2.947c1.095 0 1.697.54 1.697 1.512s-.494 1.497-1.805 1.497h-2.839zm0 1.374h3.225c1.157 0 1.851.633 1.851 1.759 0 1.034-.478 1.774-2.052 1.774h-3.024v-3.533zM40.887 17.685c-2.469 0-3.965-1.713-3.965-4.166s1.497-4.166 3.965-4.166c2.469 0 3.965 1.713 3.965 4.166s-1.497 4.166-3.965 4.166zm0-1.326c1.543 0 2.345-1.219 2.345-2.839 0-1.635-.802-2.839-2.345-2.839s-2.345 1.203-2.345 2.839c0 1.62.802 2.839 2.345 2.839zM49.521 17.685c-2.469 0-3.965-1.713-3.965-4.166s1.497-4.166 3.965-4.166c2.469 0 3.965 1.713 3.965 4.166s-1.497 4.166-3.965 4.166zm0-1.326c1.543 0 2.345-1.219 2.345-2.839 0-1.635-.802-2.839-2.345-2.839s-2.345 1.203-2.345 2.839c0 1.62.802 2.839 2.345 2.839zM54.605 6.423v11.031h1.62V14.6l1.095-1.034 2.484 3.888h1.944l-3.317-4.953 2.993-2.931h-1.99l-3.209 3.163v-6.31h-1.62zM65.654 12.687c-1.142-.262-2.021-.324-2.021-1.126 0-.555.525-.926 1.497-.926 1.265 0 1.574.633 1.682 1.25h1.574c-.108-1.373-1.126-2.53-3.271-2.53-1.975 0-3.117 1.034-3.117 2.33 0 1.79 1.697 2.037 2.947 2.33 1.157.278 2.098.355 2.098 1.342 0 .494-.478 1.049-1.605 1.049-1.666 0-2.037-.725-2.114-1.574H61.75c.077 1.666 1.173 2.854 3.718 2.854 1.913 0 3.209-.941 3.209-2.453 0-1.882-1.574-2.206-3.024-2.546zM73.975 9.354c-1.327 0-2.145.617-2.561 1.234h-.031V6.422h-1.62v11.031h1.62v-4.798c0-1.173.849-1.929 2.037-1.929 1.126 0 1.574.679 1.574 1.743v4.983h1.635v-5.446c0-1.805-1.157-2.654-2.654-2.654zM81.597 16.359c-1.435 0-2.283-1.095-2.283-2.422h6.048c0-2.808-1.25-4.582-3.795-4.582-2.376 0-3.873 1.605-3.873 4.166 0 2.469 1.497 4.166 3.95 4.166 2.021 0 3.194-1.142 3.595-2.638h-1.62c-.139.478-.679 1.311-2.021 1.311zm-.031-5.724c1.311 0 2.175.879 2.175 2.098h-4.428c0-1.219.941-2.098 2.253-2.098zM86.503 6.423v11.031h1.635V6.423h-1.635zM93.429 7.749V6.422a5.662 5.662 0 0 0-1.08-.108c-1.296 0-2.006.586-2.006 2.253V9.57h-1.126v1.327h1.126v6.557h1.635v-6.557h1.45V9.57h-1.45v-.864c0-.895.401-1.003 1.45-.957z"/></symbol><symbol id="icon-logo_light" viewBox="0 0 94 24"><path fill="#f6f6f6" style="fill:var(--color3,#f6f6f6)" d="M0 1.714 10.506 12.11l10.065 10.175V1.714H0z"/><path fill="#f6f6f6" style="fill:var(--color3,#f6f6f6)" d="m2.865 4.433 7.678 7.604 7.237 7.384H2.866V4.433z"/><path fill="#4f2ee8" style="fill:var(--color4,#4f2ee8)" d="m17.828 19.469-7.678-7.604-7.237-7.384h14.914v14.988z"/><path fill="#4f2ee8" style="fill:var(--color4,#4f2ee8)" d="m5.951 7.518 8.743 8.743H5.951V7.518z"/><path fill="#f6f6f6" style="fill:var(--color3,#f6f6f6)" d="m5.951 7.518 8.743 8.743V7.518H5.951z"/><path style="fill:var(--color6,#000)" d="M35.745 9.2c0-1.774-1.311-2.777-3.579-2.777h-4.737v11.031h4.999c2.283 0 3.749-1.095 3.749-3.225 0-1.651-.987-2.499-2.145-2.7v-.031c.91-.309 1.713-.941 1.713-2.299zm-6.48 1.789V7.98h2.947c1.095 0 1.697.54 1.697 1.512s-.494 1.497-1.805 1.497h-2.839zm0 1.374h3.225c1.157 0 1.851.633 1.851 1.759 0 1.034-.478 1.774-2.052 1.774h-3.024v-3.533zM40.887 17.685c-2.469 0-3.965-1.713-3.965-4.166s1.497-4.166 3.965-4.166c2.469 0 3.965 1.713 3.965 4.166s-1.497 4.166-3.965 4.166zm0-1.326c1.543 0 2.345-1.219 2.345-2.839 0-1.635-.802-2.839-2.345-2.839s-2.345 1.203-2.345 2.839c0 1.62.802 2.839 2.345 2.839zM49.521 17.685c-2.469 0-3.965-1.713-3.965-4.166s1.497-4.166 3.965-4.166c2.469 0 3.965 1.713 3.965 4.166s-1.497 4.166-3.965 4.166zm0-1.326c1.543 0 2.345-1.219 2.345-2.839 0-1.635-.802-2.839-2.345-2.839s-2.345 1.203-2.345 2.839c0 1.62.802 2.839 2.345 2.839zM54.605 6.423v11.031h1.62V14.6l1.095-1.034 2.484 3.888h1.944l-3.317-4.953 2.993-2.931h-1.99l-3.209 3.163v-6.31h-1.62zM65.654 12.687c-1.142-.262-2.021-.324-2.021-1.126 0-.555.525-.926 1.497-.926 1.265 0 1.574.633 1.682 1.25h1.574c-.108-1.373-1.126-2.53-3.271-2.53-1.975 0-3.117 1.034-3.117 2.33 0 1.79 1.697 2.037 2.947 2.33 1.157.278 2.098.355 2.098 1.342 0 .494-.478 1.049-1.605 1.049-1.666 0-2.037-.725-2.114-1.574H61.75c.077 1.666 1.173 2.854 3.718 2.854 1.913 0 3.209-.941 3.209-2.453 0-1.882-1.574-2.206-3.024-2.546zM73.975 9.354c-1.327 0-2.145.617-2.561 1.234h-.031V6.422h-1.62v11.031h1.62v-4.798c0-1.173.849-1.929 2.037-1.929 1.126 0 1.574.679 1.574 1.743v4.983h1.635v-5.446c0-1.805-1.157-2.654-2.654-2.654zM81.597 16.359c-1.435 0-2.283-1.095-2.283-2.422h6.048c0-2.808-1.25-4.582-3.795-4.582-2.376 0-3.873 1.605-3.873 4.166 0 2.469 1.497 4.166 3.95 4.166 2.021 0 3.194-1.142 3.595-2.638h-1.62c-.139.478-.679 1.311-2.021 1.311zm-.031-5.724c1.311 0 2.175.879 2.175 2.098h-4.428c0-1.219.941-2.098 2.253-2.098zM86.503 6.423v11.031h1.635V6.423h-1.635zM93.429 7.749V6.422a5.662 5.662 0 0 0-1.08-.108c-1.296 0-2.006.586-2.006 2.253V9.57h-1.126v1.327h1.126v6.557h1.635v-6.557h1.45V9.57h-1.45v-.864c0-.895.401-1.003 1.45-.957z"/></symbol></defs></svg>