<svg aria-hidden="true" style="position: absolute; width: 0; height: 0; overflow: hidden;" version="1.1" xmlns="http://www.w3.org/2000/svg" xmlns:xlink="http://www.w3.org/1999/xlink">
<defs>
<symbol id="icon-fi-ss-caret-down" viewBox="0 0 21 24">
<path fill="#fff" style="fill: var(--color1, #fff)" d="M4.423 9h12.385l-5.567 6.293c-0.166 0.187-0.391 0.293-0.625 0.293s-0.46-0.105-0.625-0.293l-5.567-6.293z"></path>
</symbol>
<symbol id="icon-lock" viewBox="0 0 24 24">
<path stroke-linejoin="round" stroke-linecap="round" stroke-miterlimit="4" stroke-width="1.7143" d="M17 11v-3c0-2.761-2.239-5-5-5s-5 2.239-5 5v3M7.8 21h8.4c1.68 0 2.52 0 3.162-0.327 0.564-0.288 1.023-0.747 1.311-1.311 0.327-0.642 0.327-1.482 0.327-3.162v-0.4c0-1.68 0-2.52-0.327-3.162-0.288-0.565-0.747-1.023-1.311-1.311-0.642-0.327-1.482-0.327-3.162-0.327h-8.4c-1.68 0-2.52 0-3.162 0.327-0.564 0.288-1.023 0.747-1.311 1.311-0.327 0.642-0.327 1.482-0.327 3.162v0.4c0 1.68 0 2.52 0.327 3.162 0.288 0.564 0.747 1.023 1.311 1.311 0.642 0.327 1.482 0.327 3.162 0.327z"></path>
</symbol>
<symbol id="icon-mail" viewBox="0 0 24 24">
<path stroke-linejoin="round" stroke-linecap="round" stroke-miterlimit="4" stroke-width="1.7143" d="M21.5 18l-6.643-6M9.143 12l-6.643 6M2 7l8.165 5.715c0.661 0.463 0.992 0.694 1.351 0.784 0.318 0.079 0.65 0.079 0.967 0 0.36-0.090 0.69-0.321 1.351-0.784l8.165-5.715M6.8 20h10.4c1.68 0 2.52 0 3.162-0.327 0.565-0.288 1.023-0.747 1.311-1.311 0.327-0.642 0.327-1.482 0.327-3.162v-6.4c0-1.68 0-2.52-0.327-3.162-0.288-0.564-0.747-1.023-1.311-1.311-0.642-0.327-1.482-0.327-3.162-0.327h-10.4c-1.68 0-2.52 0-3.162 0.327-0.564 0.288-1.023 0.747-1.311 1.311-0.327 0.642-0.327 1.482-0.327 3.162v6.4c0 1.68 0 2.52 0.327 3.162 0.288 0.565 0.747 1.023 1.311 1.311 0.642 0.327 1.482 0.327 3.162 0.327z"></path>
</symbol>
<symbol id="icon-x-close" viewBox="0 0 24 24">
<path stroke-linejoin="round" stroke-linecap="round" stroke-miterlimit="4" stroke-width="2.5714" d="M18 6l-12 12M6 6l12 12"></path>
</symbol>
<symbol id="icon-arrow-right" viewBox="0 0 24 24">
<path fill="none" stroke="#eac645" style="stroke: var(--color2, #eac645)" stroke-linejoin="round" stroke-linecap="round" stroke-miterlimit="4" stroke-width="2.4" d="M4 12h16M20 12l-6-6M20 12l-6 6"></path>
</symbol>
<symbol id="icon-logo_dark" viewBox="0 0 94 24">
<path fill="#f6f6f6" style="fill: var(--color3, #f6f6f6)" d="M0 1.714l10.506 10.396 10.065 10.175v-20.571h-20.571z"></path>
<path fill="#f6f6f6" style="fill: var(--color3, #f6f6f6)" d="M2.865 4.433l7.678 7.604 7.237 7.384h-14.914v-14.988z"></path>
<path fill="#4f2ee8" style="fill: var(--color4, #4f2ee8)" d="M17.828 19.469l-7.678-7.604-7.237-7.384h14.914v14.988z"></path>
<path fill="#4f2ee8" style="fill: var(--color4, #4f2ee8)" d="M5.951 7.518l8.743 8.743h-8.743v-8.743z"></path>
<path fill="#f6f6f6" style="fill: var(--color3, #f6f6f6)" d="M5.951 7.518l8.743 8.743v-8.743h-8.743z"></path>
<path fill="#f3f3f3" style="fill: var(--color5, #f3f3f3)" d="M35.745 9.2c0-1.774-1.311-2.777-3.579-2.777h-4.737v11.031h4.999c2.283 0 3.749-1.095 3.749-3.225 0-1.651-0.987-2.499-2.145-2.7v-0.031c0.91-0.309 1.713-0.941 1.713-2.299zM29.265 10.989v-3.009h2.947c1.095 0 1.697 0.54 1.697 1.512s-0.494 1.497-1.805 1.497h-2.839zM29.265 12.363h3.225c1.157 0 1.851 0.633 1.851 1.759 0 1.034-0.478 1.774-2.052 1.774h-3.024v-3.533z"></path>
<path fill="#f3f3f3" style="fill: var(--color5, #f3f3f3)" d="M40.887 17.685c-2.469 0-3.965-1.713-3.965-4.166s1.497-4.166 3.965-4.166c2.469 0 3.965 1.713 3.965 4.166s-1.497 4.166-3.965 4.166zM40.887 16.359c1.543 0 2.345-1.219 2.345-2.839 0-1.635-0.802-2.839-2.345-2.839s-2.345 1.203-2.345 2.839c0 1.62 0.802 2.839 2.345 2.839z"></path>
<path fill="#f3f3f3" style="fill: var(--color5, #f3f3f3)" d="M49.521 17.685c-2.469 0-3.965-1.713-3.965-4.166s1.497-4.166 3.965-4.166c2.469 0 3.965 1.713 3.965 4.166s-1.497 4.166-3.965 4.166zM49.521 16.359c1.543 0 2.345-1.219 2.345-2.839 0-1.635-0.802-2.839-2.345-2.839s-2.345 1.203-2.345 2.839c0 1.62 0.802 2.839 2.345 2.839z"></path>
<path fill="#f3f3f3" style="fill: var(--color5, #f3f3f3)" d="M54.605 6.423v11.031h1.62v-2.854l1.095-1.034 2.484 3.888h1.944l-3.317-4.953 2.993-2.931h-1.99l-3.209 3.163v-6.31h-1.62z"></path>
<path fill="#f3f3f3" style="fill: var(--color5, #f3f3f3)" d="M65.654 12.687c-1.142-0.262-2.021-0.324-2.021-1.126 0-0.555 0.525-0.926 1.497-0.926 1.265 0 1.574 0.633 1.682 1.25h1.574c-0.108-1.373-1.126-2.53-3.271-2.53-1.975 0-3.117 1.034-3.117 2.33 0 1.79 1.697 2.037 2.947 2.33 1.157 0.278 2.098 0.355 2.098 1.342 0 0.494-0.478 1.049-1.605 1.049-1.666 0-2.037-0.725-2.114-1.574h-1.574c0.077 1.666 1.173 2.854 3.718 2.854 1.913 0 3.209-0.941 3.209-2.453 0-1.882-1.574-2.206-3.024-2.546z"></path>
<path fill="#f3f3f3" style="fill: var(--color5, #f3f3f3)" d="M73.975 9.354c-1.327 0-2.145 0.617-2.561 1.234h-0.031v-4.166h-1.62v11.031h1.62v-4.798c0-1.173 0.849-1.929 2.037-1.929 1.126 0 1.574 0.679 1.574 1.743v4.983h1.635v-5.446c0-1.805-1.157-2.654-2.654-2.654z"></path>
<path fill="#f3f3f3" style="fill: var(--color5, #f3f3f3)" d="M81.597 16.359c-1.435 0-2.283-1.095-2.283-2.422h6.048c0-2.808-1.25-4.582-3.795-4.582-2.376 0-3.873 1.605-3.873 4.166 0 2.469 1.497 4.166 3.95 4.166 2.021 0 3.194-1.142 3.595-2.638h-1.62c-0.139 0.478-0.679 1.311-2.021 1.311zM81.566 10.635c1.311 0 2.175 0.879 2.175 2.098h-4.428c0-1.219 0.941-2.098 2.253-2.098z"></path>
<path fill="#f3f3f3" style="fill: var(--color5, #f3f3f3)" d="M86.503 6.423v11.031h1.635v-11.031h-1.635z"></path>
<path fill="#f3f3f3" style="fill: var(--color5, #f3f3f3)" d="M93.429 7.749v-1.327c-0.324-0.062-0.679-0.108-1.080-0.108-1.296 0-2.006 0.586-2.006 2.253v1.003h-1.126v1.327h1.126v6.557h1.635v-6.557h1.45v-1.327h-1.45v-0.864c0-0.895 0.401-1.003 1.45-0.957z"></path>
</symbol>
<symbol id="icon-logo_light" viewBox="0 0 94 24">
<path fill="#f6f6f6" style="fill: var(--color3, #f6f6f6)" d="M0 1.714l10.506 10.396 10.065 10.175v-20.571h-20.571z"></path>
<path fill="#f6f6f6" style="fill: var(--color3, #f6f6f6)" d="M2.865 4.433l7.678 7.604 7.237 7.384h-14.914v-14.988z"></path>
<path fill="#4f2ee8" style="fill: var(--color4, #4f2ee8)" d="M17.828 19.469l-7.678-7.604-7.237-7.384h14.914v14.988z"></path>
<path fill="#4f2ee8" style="fill: var(--color4, #4f2ee8)" d="M5.951 7.518l8.743 8.743h-8.743v-8.743z"></path>
<path fill="#f6f6f6" style="fill: var(--color3, #f6f6f6)" d="M5.951 7.518l8.743 8.743v-8.743h-8.743z"></path>
<path fill="#000" style="fill: var(--color6, #000)" d="M35.745 9.2c0-1.774-1.311-2.777-3.579-2.777h-4.737v11.031h4.999c2.283 0 3.749-1.095 3.749-3.225 0-1.651-0.987-2.499-2.145-2.7v-0.031c0.91-0.309 1.713-0.941 1.713-2.299zM29.265 10.989v-3.009h2.947c1.095 0 1.697 0.54 1.697 1.512s-0.494 1.497-1.805 1.497h-2.839zM29.265 12.363h3.225c1.157 0 1.851 0.633 1.851 1.759 0 1.034-0.478 1.774-2.052 1.774h-3.024v-3.533z"></path>
<path fill="#000" style="fill: var(--color6, #000)" d="M40.887 17.685c-2.469 0-3.965-1.713-3.965-4.166s1.497-4.166 3.965-4.166c2.469 0 3.965 1.713 3.965 4.166s-1.497 4.166-3.965 4.166zM40.887 16.359c1.543 0 2.345-1.219 2.345-2.839 0-1.635-0.802-2.839-2.345-2.839s-2.345 1.203-2.345 2.839c0 1.62 0.802 2.839 2.345 2.839z"></path>
<path fill="#000" style="fill: var(--color6, #000)" d="M49.521 17.685c-2.469 0-3.965-1.713-3.965-4.166s1.497-4.166 3.965-4.166c2.469 0 3.965 1.713 3.965 4.166s-1.497 4.166-3.965 4.166zM49.521 16.359c1.543 0 2.345-1.219 2.345-2.839 0-1.635-0.802-2.839-2.345-2.839s-2.345 1.203-2.345 2.839c0 1.62 0.802 2.839 2.345 2.839z"></path>
<path fill="#000" style="fill: var(--color6, #000)" d="M54.605 6.423v11.031h1.62v-2.854l1.095-1.034 2.484 3.888h1.944l-3.317-4.953 2.993-2.931h-1.99l-3.209 3.163v-6.31h-1.62z"></path>
<path fill="#000" style="fill: var(--color6, #000)" d="M65.654 12.687c-1.142-0.262-2.021-0.324-2.021-1.126 0-0.555 0.525-0.926 1.497-0.926 1.265 0 1.574 0.633 1.682 1.25h1.574c-0.108-1.373-1.126-2.53-3.271-2.53-1.975 0-3.117 1.034-3.117 2.33 0 1.79 1.697 2.037 2.947 2.33 1.157 0.278 2.098 0.355 2.098 1.342 0 0.494-0.478 1.049-1.605 1.049-1.666 0-2.037-0.725-2.114-1.574h-1.574c0.077 1.666 1.173 2.854 3.718 2.854 1.913 0 3.209-0.941 3.209-2.453 0-1.882-1.574-2.206-3.024-2.546z"></path>
<path fill="#000" style="fill: var(--color6, #000)" d="M73.975 9.354c-1.327 0-2.145 0.617-2.561 1.234h-0.031v-4.166h-1.62v11.031h1.62v-4.798c0-1.173 0.849-1.929 2.037-1.929 1.126 0 1.574 0.679 1.574 1.743v4.983h1.635v-5.446c0-1.805-1.157-2.654-2.654-2.654z"></path>
<path fill="#000" style="fill: var(--color6, #000)" d="M81.597 16.359c-1.435 0-2.283-1.095-2.283-2.422h6.048c0-2.808-1.25-4.582-3.795-4.582-2.376 0-3.873 1.605-3.873 4.166 0 2.469 1.497 4.166 3.95 4.166 2.021 0 3.194-1.142 3.595-2.638h-1.62c-0.139 0.478-0.679 1.311-2.021 1.311zM81.566 10.635c1.311 0 2.175 0.879 2.175 2.098h-4.428c0-1.219 0.941-2.098 2.253-2.098z"></path>
<path fill="#000" style="fill: var(--color6, #000)" d="M86.503 6.423v11.031h1.635v-11.031h-1.635z"></path>
<path fill="#000" style="fill: var(--color6, #000)" d="M93.429 7.749v-1.327c-0.324-0.062-0.679-0.108-1.080-0.108-1.296 0-2.006 0.586-2.006 2.253v1.003h-1.126v1.327h1.126v6.557h1.635v-6.557h1.45v-1.327h-1.45v-0.864c0-0.895 0.401-1.003 1.45-0.957z"></path>
</symbol>
</defs>
</svg>
