<svg aria-hidden="true" style="position: absolute; width: 0; height: 0; overflow: hidden;" version="1.1" xmlns="http://www.w3.org/2000/svg" xmlns:xlink="http://www.w3.org/1999/xlink">
<defs>
<symbol id="icon-lock" viewBox="0 0 28 28">
<path stroke-linejoin="round" stroke-linecap="round" stroke-miterlimit="4" stroke-width="2" d="M19.833 12.833v-3.5c0-3.222-2.612-5.833-5.833-5.833s-5.833 2.612-5.833 5.833v3.5M9.1 24.5h9.8c1.96 0 2.94 0 3.689-0.381 0.658-0.336 1.194-0.871 1.53-1.53 0.381-0.749 0.381-1.729 0.381-3.689v-0.467c0-1.96 0-2.94-0.381-3.689-0.336-0.659-0.871-1.194-1.53-1.53-0.749-0.381-1.729-0.381-3.689-0.381h-9.8c-1.96 0-2.94 0-3.689 0.381-0.659 0.336-1.194 0.871-1.53 1.53-0.381 0.749-0.381 1.729-0.381 3.689v0.467c0 1.96 0 2.94 0.381 3.689 0.336 0.658 0.871 1.194 1.53 1.53 0.749 0.381 1.729 0.381 3.689 0.381z"></path>
</symbol>
<symbol id="icon-mail" viewBox="0 0 28 28">
<path stroke-linejoin="round" stroke-linecap="round" stroke-miterlimit="4" stroke-width="2" d="M25.083 21l-7.75-7M10.667 14l-7.75 7M2.333 8.167l9.526 6.668c0.771 0.54 1.157 0.81 1.577 0.915 0.371 0.092 0.758 0.092 1.129 0 0.42-0.105 0.805-0.374 1.577-0.915l9.526-6.668M7.933 23.333h12.133c1.96 0 2.94 0 3.689-0.381 0.659-0.336 1.194-0.871 1.53-1.53 0.381-0.749 0.381-1.729 0.381-3.689v-7.467c0-1.96 0-2.94-0.381-3.689-0.336-0.659-0.871-1.194-1.53-1.53-0.749-0.381-1.729-0.381-3.689-0.381h-12.133c-1.96 0-2.94 0-3.689 0.381-0.659 0.336-1.194 0.871-1.53 1.53-0.381 0.749-0.381 1.729-0.381 3.689v7.467c0 1.96 0 2.94 0.381 3.689 0.336 0.659 0.871 1.194 1.53 1.53 0.749 0.381 1.729 0.381 3.689 0.381z"></path>
</symbol>
<symbol id="icon-x-close" viewBox="0 0 28 28">
<path stroke-linejoin="round" stroke-linecap="round" stroke-miterlimit="4" stroke-width="3" d="M21 7l-14 14M7 7l14 14"></path>
</symbol>
<symbol id="icon-arrow-right" viewBox="0 0 28 28">
<path fill="none" stroke="#eac645" style="stroke: var(--color1, #eac645)" stroke-linejoin="round" stroke-linecap="round" stroke-miterlimit="4" stroke-width="2.8" d="M4.667 14h18.667M23.333 14l-7-7M23.333 14l-7 7"></path>
</symbol>
<symbol id="icon-logo_dark" viewBox="0 0 110 28">
<path fill="#f6f6f6" style="fill: var(--color2, #f6f6f6)" d="M0 2l12.257 12.129 11.743 11.871v-24h-24z"></path>
<path fill="#f6f6f6" style="fill: var(--color2, #f6f6f6)" d="M3.343 5.171l8.957 8.871 8.443 8.614h-17.4v-17.486z"></path>
<path fill="#4f2ee8" style="fill: var(--color3, #4f2ee8)" d="M20.8 22.714l-8.957-8.871-8.443-8.614h17.4v17.486z"></path>
<path fill="#4f2ee8" style="fill: var(--color3, #4f2ee8)" d="M6.943 8.771l10.2 10.2h-10.2v-10.2z"></path>
<path fill="#f6f6f6" style="fill: var(--color2, #f6f6f6)" d="M6.943 8.771l10.2 10.2v-10.2h-10.2z"></path>
<path fill="#f3f3f3" style="fill: var(--color4, #f3f3f3)" d="M41.702 10.733c0-2.070-1.53-3.24-4.176-3.24h-5.526v12.87h5.832c2.664 0 4.374-1.278 4.374-3.762 0-1.926-1.152-2.916-2.502-3.15v-0.036c1.062-0.36 1.998-1.098 1.998-2.682zM34.142 12.821v-3.51h3.438c1.278 0 1.98 0.63 1.98 1.764s-0.576 1.746-2.106 1.746h-3.312zM34.142 14.423h3.762c1.35 0 2.16 0.738 2.16 2.052 0 1.206-0.558 2.070-2.394 2.070h-3.528v-4.122z"></path>
<path fill="#f3f3f3" style="fill: var(--color4, #f3f3f3)" d="M47.702 20.633c-2.88 0-4.626-1.998-4.626-4.86s1.746-4.86 4.626-4.86c2.88 0 4.626 1.998 4.626 4.86s-1.746 4.86-4.626 4.86zM47.702 19.085c1.8 0 2.736-1.422 2.736-3.312 0-1.908-0.936-3.312-2.736-3.312s-2.736 1.404-2.736 3.312c0 1.89 0.936 3.312 2.736 3.312z"></path>
<path fill="#f3f3f3" style="fill: var(--color4, #f3f3f3)" d="M57.774 20.633c-2.88 0-4.626-1.998-4.626-4.86s1.746-4.86 4.626-4.86c2.88 0 4.626 1.998 4.626 4.86s-1.746 4.86-4.626 4.86zM57.774 19.085c1.8 0 2.736-1.422 2.736-3.312 0-1.908-0.936-3.312-2.736-3.312s-2.736 1.404-2.736 3.312c0 1.89 0.936 3.312 2.736 3.312z"></path>
<path fill="#f3f3f3" style="fill: var(--color4, #f3f3f3)" d="M63.706 7.493v12.87h1.89v-3.33l1.278-1.206 2.898 4.536h2.268l-3.87-5.778 3.492-3.42h-2.322l-3.744 3.69v-7.362h-1.89z"></path>
<path fill="#f3f3f3" style="fill: var(--color4, #f3f3f3)" d="M76.596 14.801c-1.332-0.306-2.358-0.378-2.358-1.314 0-0.648 0.612-1.080 1.746-1.080 1.476 0 1.836 0.738 1.962 1.458h1.836c-0.126-1.602-1.314-2.952-3.816-2.952-2.304 0-3.636 1.206-3.636 2.718 0 2.088 1.98 2.376 3.438 2.718 1.35 0.324 2.448 0.414 2.448 1.566 0 0.576-0.558 1.224-1.872 1.224-1.944 0-2.376-0.846-2.466-1.836h-1.836c0.090 1.944 1.368 3.33 4.338 3.33 2.232 0 3.744-1.098 3.744-2.862 0-2.196-1.836-2.574-3.528-2.97z"></path>
<path fill="#f3f3f3" style="fill: var(--color4, #f3f3f3)" d="M86.304 10.913c-1.548 0-2.502 0.72-2.988 1.44h-0.036v-4.86h-1.89v12.87h1.89v-5.598c0-1.368 0.99-2.25 2.376-2.25 1.314 0 1.836 0.792 1.836 2.034v5.814h1.908v-6.354c0-2.106-1.35-3.096-3.096-3.096z"></path>
<path fill="#f3f3f3" style="fill: var(--color4, #f3f3f3)" d="M95.196 19.085c-1.674 0-2.664-1.278-2.664-2.826h7.056c0-3.276-1.458-5.346-4.428-5.346-2.772 0-4.518 1.872-4.518 4.86 0 2.88 1.746 4.86 4.608 4.86 2.358 0 3.726-1.332 4.194-3.078h-1.89c-0.162 0.558-0.792 1.53-2.358 1.53zM95.16 12.407c1.53 0 2.538 1.026 2.538 2.448h-5.166c0-1.422 1.098-2.448 2.628-2.448z"></path>
<path fill="#f3f3f3" style="fill: var(--color4, #f3f3f3)" d="M100.92 7.493v12.87h1.908v-12.87h-1.908z"></path>
<path fill="#f3f3f3" style="fill: var(--color4, #f3f3f3)" d="M109.001 9.041v-1.548c-0.378-0.072-0.792-0.126-1.26-0.126-1.512 0-2.34 0.684-2.34 2.628v1.17h-1.314v1.548h1.314v7.65h1.908v-7.65h1.692v-1.548h-1.692v-1.008c0-1.044 0.468-1.17 1.692-1.116z"></path>
</symbol>
<symbol id="icon-logo_light" viewBox="0 0 110 28">
<path fill="#f6f6f6" style="fill: var(--color2, #f6f6f6)" d="M0 2l12.257 12.129 11.743 11.871v-24h-24z"></path>
<path fill="#f6f6f6" style="fill: var(--color2, #f6f6f6)" d="M3.343 5.171l8.957 8.871 8.443 8.614h-17.4v-17.486z"></path>
<path fill="#4f2ee8" style="fill: var(--color3, #4f2ee8)" d="M20.8 22.714l-8.957-8.871-8.443-8.614h17.4v17.486z"></path>
<path fill="#4f2ee8" style="fill: var(--color3, #4f2ee8)" d="M6.943 8.771l10.2 10.2h-10.2v-10.2z"></path>
<path fill="#f6f6f6" style="fill: var(--color2, #f6f6f6)" d="M6.943 8.771l10.2 10.2v-10.2h-10.2z"></path>
<path fill="#000" style="fill: var(--color5, #000)" d="M41.702 10.733c0-2.070-1.53-3.24-4.176-3.24h-5.526v12.87h5.832c2.664 0 4.374-1.278 4.374-3.762 0-1.926-1.152-2.916-2.502-3.15v-0.036c1.062-0.36 1.998-1.098 1.998-2.682zM34.142 12.821v-3.51h3.438c1.278 0 1.98 0.63 1.98 1.764s-0.576 1.746-2.106 1.746h-3.312zM34.142 14.423h3.762c1.35 0 2.16 0.738 2.16 2.052 0 1.206-0.558 2.070-2.394 2.070h-3.528v-4.122z"></path>
<path fill="#000" style="fill: var(--color5, #000)" d="M47.702 20.633c-2.88 0-4.626-1.998-4.626-4.86s1.746-4.86 4.626-4.86c2.88 0 4.626 1.998 4.626 4.86s-1.746 4.86-4.626 4.86zM47.702 19.085c1.8 0 2.736-1.422 2.736-3.312 0-1.908-0.936-3.312-2.736-3.312s-2.736 1.404-2.736 3.312c0 1.89 0.936 3.312 2.736 3.312z"></path>
<path fill="#000" style="fill: var(--color5, #000)" d="M57.774 20.633c-2.88 0-4.626-1.998-4.626-4.86s1.746-4.86 4.626-4.86c2.88 0 4.626 1.998 4.626 4.86s-1.746 4.86-4.626 4.86zM57.774 19.085c1.8 0 2.736-1.422 2.736-3.312 0-1.908-0.936-3.312-2.736-3.312s-2.736 1.404-2.736 3.312c0 1.89 0.936 3.312 2.736 3.312z"></path>
<path fill="#000" style="fill: var(--color5, #000)" d="M63.706 7.493v12.87h1.89v-3.33l1.278-1.206 2.898 4.536h2.268l-3.87-5.778 3.492-3.42h-2.322l-3.744 3.69v-7.362h-1.89z"></path>
<path fill="#000" style="fill: var(--color5, #000)" d="M76.596 14.801c-1.332-0.306-2.358-0.378-2.358-1.314 0-0.648 0.612-1.080 1.746-1.080 1.476 0 1.836 0.738 1.962 1.458h1.836c-0.126-1.602-1.314-2.952-3.816-2.952-2.304 0-3.636 1.206-3.636 2.718 0 2.088 1.98 2.376 3.438 2.718 1.35 0.324 2.448 0.414 2.448 1.566 0 0.576-0.558 1.224-1.872 1.224-1.944 0-2.376-0.846-2.466-1.836h-1.836c0.090 1.944 1.368 3.33 4.338 3.33 2.232 0 3.744-1.098 3.744-2.862 0-2.196-1.836-2.574-3.528-2.97z"></path>
<path fill="#000" style="fill: var(--color5, #000)" d="M86.304 10.913c-1.548 0-2.502 0.72-2.988 1.44h-0.036v-4.86h-1.89v12.87h1.89v-5.598c0-1.368 0.99-2.25 2.376-2.25 1.314 0 1.836 0.792 1.836 2.034v5.814h1.908v-6.354c0-2.106-1.35-3.096-3.096-3.096z"></path>
<path fill="#000" style="fill: var(--color5, #000)" d="M95.196 19.085c-1.674 0-2.664-1.278-2.664-2.826h7.056c0-3.276-1.458-5.346-4.428-5.346-2.772 0-4.518 1.872-4.518 4.86 0 2.88 1.746 4.86 4.608 4.86 2.358 0 3.726-1.332 4.194-3.078h-1.89c-0.162 0.558-0.792 1.53-2.358 1.53zM95.16 12.407c1.53 0 2.538 1.026 2.538 2.448h-5.166c0-1.422 1.098-2.448 2.628-2.448z"></path>
<path fill="#000" style="fill: var(--color5, #000)" d="M100.92 7.493v12.87h1.908v-12.87h-1.908z"></path>
<path fill="#000" style="fill: var(--color5, #000)" d="M109.001 9.041v-1.548c-0.378-0.072-0.792-0.126-1.26-0.126-1.512 0-2.34 0.684-2.34 2.628v1.17h-1.314v1.548h1.314v7.65h1.908v-7.65h1.692v-1.548h-1.692v-1.008c0-1.044 0.468-1.17 1.692-1.116z"></path>
</symbol>
</defs>
</svg>
